<svg t="1684917037130" class="icon" viewBox="0 0 1024 1024" version="1.1" xmlns="http://www.w3.org/2000/svg" p-id="1669" width="200" height="200"><path d="M862.314667 117.333333H161.706667A108.352 108.352 0 0 0 53.333333 225.685333V819.626667A108.352 108.352 0 0 0 161.685333 928H862.293333a108.352 108.352 0 0 0 108.352-108.352V225.706667A108.352 108.352 0 0 0 862.314667 117.333333z m0 64c24.490667 0 44.352 19.84 44.352 44.352V819.626667c0 24.490667-19.84 44.352-44.352 44.352H161.706667A44.352 44.352 0 0 1 117.333333 819.648V225.706667C117.333333 201.173333 137.173333 181.333333 161.685333 181.333333H862.293333z" fill="#8a8a8a" p-id="1670"></path><path d="M938.666667 362.666667v64H85.333333v-64zM619.093333 640l154.026667 2.133333a32 32 0 1 1-0.896 64l-154.005333-2.133333a32 32 0 0 1 0.896-64z" fill="#8a8a8a" p-id="1671"></path></svg>